<svg xmlns="http://www.w3.org/2000/svg" viewBox="0 0 1200.98 300.79">
  <g id="BG">
    <path d="M.5.5V299.94H542a5,5,0,0,1,2.37.56H1200.5V.5Z" transform="translate(0.48 0.29)" style="fill: #1d1f21"/>
    <path d="M481.74-.29H-.48V299.94h483a296.19,296.19,0,0,0-.8-300.23Z" transform="translate(0.48 0.29)" style="fill: #1a1a1a"/>
  </g>
  <g id="text">
    <g>
      <path d="M676.61,132.37a1.93,1.93,0,0,1-.61-1.62V120.12a11.72,11.72,0,0,0-4-1.29,43.27,43.27,0,0,0-5.52-.73,13.84,13.84,0,0,0-1.3,4.13l-.32,1.62c-.06.38-.22,1.22-.49,2.52a28.54,28.54,0,0,1-.89,3.36,12.06,12.06,0,0,1-1,2.24c-2.06,0-3.25-.54-3.57-1.63q.88-1.29,2-7.62l2.67-14.84q1.79-10.55,3.29-18a104.71,104.71,0,0,1,3.2-12.49q1.86-5.59,3.57-5.59a4.29,4.29,0,0,1,2.59.65q0,3.24,1.55,15.65a152.55,152.55,0,0,1,1.62,16.62,118.57,118.57,0,0,0,.89,12.33q.81,8.19.81,13.06c0,1.84-.89,2.76-2.68,2.76A3,3,0,0,1,676.61,132.37Zm.07-17.19c-.28-2.94-.55-5.88-.81-8.84q-1-11.67-1.87-23.12c-.54.54-1.29,3-2.23,7.34s-1.83,9-2.64,14a97.16,97.16,0,0,0-1.29,9.9,26.05,26.05,0,0,0,7.21,1A7,7,0,0,0,676.68,115.18Z" transform="translate(0.48 0.29)" style="fill: #fff"/>
      <path d="M708,133a2.59,2.59,0,0,1-.32-.42,5.58,5.58,0,0,1-.36-3.58,87.72,87.72,0,0,0,.15-12.56c0-7.77-.56-15.59-.84-23.36l-.42-11.8L706,75.34c-.05-1.5-.6-3.41.89-4.36a2.2,2.2,0,0,1,1.11-.35A2.28,2.28,0,0,1,710,71.91a4.36,4.36,0,0,1,.29,1.69q.82,18.35,1,36.71c.06,5.9.06,11.8-.35,17.68a16.33,16.33,0,0,0,4.3-.1c1.43-.07,3.05.24,3.86,1.43a2.43,2.43,0,0,1-1.07,3.55,4.34,4.34,0,0,1-1.48.11l-3.18-.14A3.39,3.39,0,0,0,712,133c-.3.13-.57.34-.86.49A2.78,2.78,0,0,1,708,133Z" transform="translate(0.48 0.29)" style="fill: #fff"/>
      <path d="M723.44,129.94v-.24a2,2,0,0,1,1.47-1.58,5.82,5.82,0,0,1,2.28-.06,1.56,1.56,0,0,0,1.27-.26,1.53,1.53,0,0,0,.3-1,51.18,51.18,0,0,0-.36-7.62c-1.06-11.77-1-23.62-1-35.44a5.07,5.07,0,0,1-2.59.12c-2.91-.9-.53-3.53,1.14-4.07a23.87,23.87,0,0,1,6.61-1.14,4.46,4.46,0,0,1,1.89.24,2.34,2.34,0,0,1,1.42,2.2A2.08,2.08,0,0,1,734.15,83a13.61,13.61,0,0,0-2,0c-1.24.38-1.41,2-1.33,3.33l2.32,41.16a7,7,0,0,1,3.22.19,2.4,2.4,0,0,1,1.64,2.5,2.35,2.35,0,0,1-1.49,1.62,6.93,6.93,0,0,1-2.26.39A30.89,30.89,0,0,1,726,132C724.87,131.72,723.54,131.05,723.44,129.94Z" transform="translate(0.48 0.29)" style="fill: #fff"/>
      <path d="M749.41,131.78a1,1,0,0,1-.07-.21,3.29,3.29,0,0,1-.07-.83c0-4-.19-7.89-.41-11.83l-2.05-35.45a39.88,39.88,0,0,1-4.07-.45,4.83,4.83,0,0,1-1.83-.57c-1.47-.93-.85-2.59.65-3a6.15,6.15,0,0,1,2.14-.1l11.2.77a3,3,0,0,1,2.22.78,2,2,0,0,1-.46,2.63,3.88,3.88,0,0,1-2.83.6c-1-.12-1.94-.42-2.93-.52,0,5.71.4,11.41.82,17.11l2,26.84a9.17,9.17,0,0,1-.1,3,3.1,3.1,0,0,1-1.83,2.2A1.94,1.94,0,0,1,749.41,131.78Z" transform="translate(0.48 0.29)" style="fill: #fff"/>
      <path d="M770.18,131.78a1,1,0,0,1-.08-.21,3.29,3.29,0,0,1-.07-.83c0-4-.18-7.89-.41-11.83l-2-35.45A39.88,39.88,0,0,1,763.5,83a4.89,4.89,0,0,1-1.83-.57c-1.64-1-.7-2.64.85-3a7.53,7.53,0,0,1,2.37-.08l10.76.76a3,3,0,0,1,2.25.82,2,2,0,0,1-.5,2.61,3.89,3.89,0,0,1-2.82.58c-1-.12-1.93-.42-2.92-.52,0,5.71.4,11.41.82,17.11l2,26.84a8.9,8.9,0,0,1-.1,3,3.09,3.09,0,0,1-1.82,2.2A1.94,1.94,0,0,1,770.18,131.78Z" transform="translate(0.48 0.29)" style="fill: #fff"/>
      <path d="M791.46,133.31a9.4,9.4,0,0,0-1,.21c-1,.26-2.1.71-3.07.29-1.3-.57-1.51-2.3-1.51-3.72,0-8.42.73-16.82,1-25.23q.18-6.57,0-13.15c-.1-3.32-1.26-8.27.72-11.25a2.49,2.49,0,0,1,3.11-1.07c1.31.74,1.21,2.61,1,4.1-.79,6-.2,12.11-.21,18.18,0,8.08-1.13,16.15-.66,24.21.08,1.32.32,2.83,1.46,3.51a4.72,4.72,0,0,0,2.75.29,23.35,23.35,0,0,1,3.74,0,5.31,5.31,0,0,1,2.22.55,2.15,2.15,0,0,1,1.16,1.86,2.22,2.22,0,0,1-1.86,1.85,7.09,7.09,0,0,1-2.78-.2A17.47,17.47,0,0,0,791.46,133.31Z" transform="translate(0.48 0.29)" style="fill: #fff"/>
      <path d="M809.92,133.29l-.14-.15a4.14,4.14,0,0,1-.76-2.75l-.2-5.65c-.15-4.41-.31-8.81-.27-13.22.05-5.77.42-11.54.47-17.31,0-3,0-5.92-.26-8.87-.16-2-.4-5,1.61-6.33a4.44,4.44,0,0,1,2.79-.44,22.7,22.7,0,0,1,6.8,1.64,3.11,3.11,0,0,1,1.85,1.5,2.21,2.21,0,0,1-1.61,2.67,5.58,5.58,0,0,1-3.43-.38,9.42,9.42,0,0,0-3.39-.82l-.24,16.68c1.42.18,2.86-.27,4.29-.15s3,1.22,2.76,2.63-1.72,1.88-3,1.86a19.08,19.08,0,0,0-3.84-.21l-.25,25.82c2.1-.14,4.21-.18,6.31-.13,1.13,0,2.49.22,3,1.26a2.11,2.11,0,0,1-1.1,2.52,6.13,6.13,0,0,1-3,.52L813,134A4.51,4.51,0,0,1,809.92,133.29Z" transform="translate(0.48 0.29)" style="fill: #fff"/>
      <path d="M859.61,132.37a1.93,1.93,0,0,1-.61-1.62V120.12a11.72,11.72,0,0,0-4-1.29,43.27,43.27,0,0,0-5.52-.73,13.84,13.84,0,0,0-1.3,4.13l-.32,1.62c-.06.38-.22,1.22-.49,2.52a28.54,28.54,0,0,1-.89,3.36,12.06,12.06,0,0,1-1,2.24c-2.06,0-3.25-.54-3.57-1.63q.88-1.29,2-7.62l2.67-14.84q1.79-10.55,3.29-18a104.71,104.71,0,0,1,3.2-12.49q1.86-5.59,3.57-5.59a4.29,4.29,0,0,1,2.59.65q0,3.24,1.55,15.65a152.55,152.55,0,0,1,1.62,16.62,118.57,118.57,0,0,0,.89,12.33q.81,8.19.81,13.06c0,1.84-.89,2.76-2.68,2.76A3,3,0,0,1,859.61,132.37Zm.06-17.2h.08Q858,99.29,856.89,83.34a44.24,44.24,0,0,0-2.45,8.55c-1.51,7.13-3.15,14.44-3.71,21.72a.9.9,0,0,0,.06.61,1,1,0,0,0,.55.34A19.1,19.1,0,0,0,859.67,115.17Z" transform="translate(0.48 0.29)" style="fill: #fff"/>
      <path d="M874.56,132.07a6.21,6.21,0,0,1-.51-3.33c.21-5.38.83-10.75.85-16.13s-.54-10.43-.82-15.64A84.73,84.73,0,0,1,875,81.38a5.22,5.22,0,0,1,.37-1.57c.82-1.72,3.25-2,5.06-1.34A10.67,10.67,0,0,1,886,83.22a16.9,16.9,0,0,1,2.14,7.11,24.31,24.31,0,0,1-2.07,12.33,4.53,4.53,0,0,0-.62,2.29,4.6,4.6,0,0,0,.69,1.65,22.82,22.82,0,0,1,2.56,11.46,20.49,20.49,0,0,1-2.13,9.39,11.69,11.69,0,0,1-7.28,6c-1.55.38-3.43.25-4.44-1A2.7,2.7,0,0,1,874.56,132.07Zm8.49-5.62a11.21,11.21,0,0,0,1.46-5.76,39.37,39.37,0,0,0-.4-6,17,17,0,0,0-.85-3.37,10,10,0,0,0-1.42-2.47,3.79,3.79,0,0,0-2.27-1.46q-.33,4.62-.33,12.25c0,.32,0,1.35-.16,3.08l-.16,2.76a.33.33,0,0,0,.08.24v3.81A6,6,0,0,0,883.05,126.45Zm.17-33.66q0-10.46-3.33-11Q879,83.72,879,90.6v12Q883.21,102.52,883.22,92.79Z" transform="translate(0.48 0.29)" style="fill: #fff"/>
      <path d="M902.79,133.68a9,9,0,0,1-1.58-1.51,16.44,16.44,0,0,1-2.71-5.2c-2-5.71-2.39-11.83-2.5-17.87q-.13-7.45.32-14.91c.29-4.63.72-9.23,2.64-13.52a5.45,5.45,0,0,1,1.41-2.1,4.68,4.68,0,0,1,2.93-.82,13,13,0,0,1,9.87,5.14,22.27,22.27,0,0,1,4.25,10.55,83.07,83.07,0,0,1,.61,11.49c.1,7.2.52,14.59-1.71,21.45a15.35,15.35,0,0,1-3.56,6.3,8.06,8.06,0,0,1-6.61,2.47A7.26,7.26,0,0,1,902.79,133.68Zm6.14-4.11.13-.14a10.78,10.78,0,0,0,2.23-4.41,51,51,0,0,0,1.67-16.1c-.17-5.42-.76-10.82-.92-16.24a15.83,15.83,0,0,0-.79-5.57A7.34,7.34,0,0,0,908,83.48a4.67,4.67,0,0,0-3.93-.42,4.55,4.55,0,0,0-2.34,2.7c-1.11,3-.7,6.7-.77,9.88-.09,3.59-.21,7.17-.21,10.75,0,6.94.44,14,2.4,20.65.47,1.58,1.29,3.4,2.92,3.68A3.42,3.42,0,0,0,908.93,129.57Z" transform="translate(0.48 0.29)" style="fill: #fff"/>
      <path d="M931.9,133.55a10.87,10.87,0,0,1-4-5.72c-1.55-4.63-1.64-9.59-1.7-14.47L926,95.46l-.12-8.94c0-1.52-1-6.85,1.29-7.08a2.18,2.18,0,0,1,1.94,1,5.23,5.23,0,0,1,.73,2.16,36.9,36.9,0,0,1,.21,6.73,319.13,319.13,0,0,0,1,33,11.12,11.12,0,0,0,1.1,4.71,3.86,3.86,0,0,0,4,2c1.81-.47,2.66-2.52,3.13-4.33a77.08,77.08,0,0,0,2-14.13c.69-10.13.8-20.3.65-30.46a3.68,3.68,0,0,1,.52-2.43,2.3,2.3,0,0,1,2.95-.34A3.83,3.83,0,0,1,947,80.17a12.49,12.49,0,0,1-.11,3.23c-.59,5.1-.7,10.24-.8,15.38-.16,8.77-.31,17.65-2.54,26.14a17,17,0,0,1-3.09,6.74,7.18,7.18,0,0,1-6.62,2.68A6,6,0,0,1,931.9,133.55Z" transform="translate(0.48 0.29)" style="fill: #fff"/>
      <path d="M960.52,131.78a1,1,0,0,1-.07-.21,2.89,2.89,0,0,1-.07-.83c0-4-.19-7.89-.42-11.83l-2-35.45a39.76,39.76,0,0,1-4.08-.45,4.79,4.79,0,0,1-1.82-.57c-1.48-.93-.85-2.59.65-3a6.15,6.15,0,0,1,2.14-.1l11.19.77a3.05,3.05,0,0,1,2.23.78,2,2,0,0,1-.47,2.63,3.86,3.86,0,0,1-2.83.6c-1-.12-1.94-.42-2.92-.52,0,5.71.4,11.41.81,17.11l2,26.84a9.17,9.17,0,0,1-.11,3,3.07,3.07,0,0,1-1.82,2.2A1.94,1.94,0,0,1,960.52,131.78Z" transform="translate(0.48 0.29)" style="fill: #fff"/>
      <path d="M993.33,132.58a1.92,1.92,0,0,1-.82-.52,3.32,3.32,0,0,1-.56-2.26l.12-29.63c0-5.06,0-10.12-.17-15.17-.11-2.57-.28-5.13-.54-7.68-.2-2-.5-4.49,1.75-5.56a4.81,4.81,0,0,1,1.5-.34l2.08-.24a7.13,7.13,0,0,1,3.92.29c1.19.57,2,2.16,1.28,3.28a3.37,3.37,0,0,1-2.64,1.16,25.25,25.25,0,0,1-3.89.09,155.06,155.06,0,0,1,.35,23,5.8,5.8,0,0,1,3.21-.8,3.17,3.17,0,0,1,2.67,1.75,2.21,2.21,0,0,1-1,2.85c-1.4.61-3.47-.48-4.33.77a2.56,2.56,0,0,0-.3,1.47l0,24a24.77,24.77,0,0,1,6.55,0c1.13.14,2.54.72,2.45,1.85a8.26,8.26,0,0,1-4.9,2.16,24.67,24.67,0,0,1-5.43-.15A6.08,6.08,0,0,1,993.33,132.58Z" transform="translate(0.48 0.29)" style="fill: #fff"/>
      <path d="M1024.5,130.75a52.1,52.1,0,0,1-2.55-9.41l-3-14.5c-.09-.45-.42-1-.83-.84-.22,7.55-.45,15.16.84,22.61.31,1.81.68,3.82-.33,5.36-1.09.19-2.41.24-3.07-.65a3.2,3.2,0,0,1-.43-1.84q-.54-23.59-1.48-47.17c-.08-2-.18-4.48,2.13-5.21a6.42,6.42,0,0,1,3.91.32,9.26,9.26,0,0,1,5.25,3.77c1,1.72,1,3.81,1.09,5.8a29.17,29.17,0,0,1-.45,7,21.29,21.29,0,0,1-2.58,6,5.64,5.64,0,0,0-.73,1.55,5.28,5.28,0,0,0,.07,2c1.38,8.45,2.78,17,6.28,24.83a6.29,6.29,0,0,1,.71,2.29,2,2,0,0,1-1.15,1.94c-1.18.4-2.25-.82-2.83-1.93C1025.05,132,1024.76,131.39,1024.5,130.75Zm-3.11-33.94a23.55,23.55,0,0,0,1-10.14,7.15,7.15,0,0,0-1.06-3.36,3.1,3.1,0,0,0-3.06-1.39c-.87,2.94-.21,6.65-.15,9.71l.1,5.15c0,.58.47,4.68.1,4.91a7.13,7.13,0,0,0,2.53-3.54C1021.07,97.71,1021.24,97.27,1021.39,96.81Z" transform="translate(0.48 0.29)" style="fill: #fff"/>
      <path d="M1035.44,129.94v-.24a2,2,0,0,1,1.47-1.58,5.82,5.82,0,0,1,2.28-.06,1.56,1.56,0,0,0,1.27-.26,1.53,1.53,0,0,0,.3-1,51.18,51.18,0,0,0-.36-7.62c-1.06-11.77-1-23.62-1-35.44a5.07,5.07,0,0,1-2.59.12c-2.89-.89-.55-3.52,1.12-4.06a24.08,24.08,0,0,1,6.62-1.15,4.49,4.49,0,0,1,1.9.24,2.34,2.34,0,0,1,1.42,2.19,2.08,2.08,0,0,1-1.7,1.92,13.73,13.73,0,0,0-2,0c-1.24.38-1.41,2-1.33,3.33l2.32,41.16a7,7,0,0,1,3.22.19,2.4,2.4,0,0,1,1.64,2.5,2.35,2.35,0,0,1-1.49,1.62,6.93,6.93,0,0,1-2.26.39A30.89,30.89,0,0,1,1038,132C1036.87,131.72,1035.54,131.05,1035.44,129.94Z" transform="translate(0.48 0.29)" style="fill: #fff"/>
      <path d="M1071.08,129a34.65,34.65,0,0,1-1.87-4.39c-2.49-6.89-4-14.1-5.47-21.28-2.15,4.38-2.73,9.36-2.8,14.23s.33,9.75,0,14.61a2.63,2.63,0,0,1-.34,1.3c-.63.91-2.16.63-2.83-.25a5.37,5.37,0,0,1-.73-3.17,420.09,420.09,0,0,1,1.49-46.67c.12-1.2-.16-2.25,1-2.89a2.21,2.21,0,0,1,2.78.39,4.11,4.11,0,0,1,.33,3.12,95.67,95.67,0,0,0-.67,15.88l7.88-15.36a6.54,6.54,0,0,1,2.6-3.17c1.25-.61,3.14,0,3.27,1.38a3.2,3.2,0,0,1-.68,1.94l-6.14,9.91a9.62,9.62,0,0,0-1.13,2.24,8,8,0,0,0-.29,1.88c-.3,5.32,1.22,10.55,2.73,15.66,1.34,4.55,2.72,9.17,5.33,13.13a8.71,8.71,0,0,1,1.32,2.43,2.4,2.4,0,0,1-.66,2.53,2.25,2.25,0,0,1-2.42,0,5.26,5.26,0,0,1-1.75-1.82A18.42,18.42,0,0,1,1071.08,129Z" transform="translate(0.48 0.29)" style="fill: #fff"/>
    </g>
    <g id="subtext">
      <g>
        <path d="M1027,218a1,1,0,0,1,0-.3c.16-.87,1.27-1.18,2.16-1.08.5,0,1.11.14,1.44-.25a1.4,1.4,0,0,0,.22-.88c.06-4.36-.3-8.71-.55-13.06q-.69-11.46-.5-23a3.46,3.46,0,0,1-1.86,0c-2.24-.76-.07-2.69,1.13-3a20.75,20.75,0,0,1,4.06-.68,2.89,2.89,0,0,1,2.34.59,1.6,1.6,0,0,1-.91,2.53c-.69.08-1.54-.25-2,.28a1.51,1.51,0,0,0-.22,1c.1,12,1.61,24,1.45,36.07a5.16,5.16,0,0,1,2.38.1,1.75,1.75,0,0,1,1.2,1.84c-.22,1-1.43,1.33-2.44,1.42a25.24,25.24,0,0,1-5.63-.09,3.66,3.66,0,0,1-1.57-.45A1.53,1.53,0,0,1,1027,218Z" transform="translate(0.48 0.29)" style="fill: #fff"/>
        <path d="M1058.3,219.39a2.11,2.11,0,0,1-.26-.35,6.16,6.16,0,0,1-.69-1.91c-2.52-10.19-6.42-20-10.3-29.72l0,24.4a24.41,24.41,0,0,0,.29,4.76c.2,1,.43,2.34-.43,3a1.73,1.73,0,0,1-2.29-.69,5,5,0,0,1-.53-2.58c-.13-5.9-.18-11.8-.12-17.7q0-4.49.19-9c.08-2.81-.17-5.46,1.49-7.87a1,1,0,0,1,.44-.42.94.94,0,0,1,.71.09c1.49.65,2.33,2.22,3,3.71,4.2,9.34,6.18,19.51,9.4,29.23a285.81,285.81,0,0,0,1.1-30,4.77,4.77,0,0,1,.17-1.6,1.37,1.37,0,0,1,2.65-.08,4.55,4.55,0,0,1,.27,1.91c-.06,10.72-.38,21.45-1.42,32.13a6.09,6.09,0,0,1-.5,2.16,2.06,2.06,0,0,1-1.73,1.21A1.91,1.91,0,0,1,1058.3,219.39Z" transform="translate(0.48 0.29)" style="fill: #fff"/>
        <path d="M1070.46,219.34a1.35,1.35,0,0,1,0-.35l.71-20.59.37-10.42c.08-2.5-.93-6.71,2.54-6.82a17.47,17.47,0,0,1,5.62.72c.82.24,1.76.71,1.82,1.56a1.56,1.56,0,0,1-1.13,1.46,4.55,4.55,0,0,1-2,0l-3.55-.43-.59,13.91a7.63,7.63,0,0,1,2.74.16,1.8,1.8,0,0,1,.8.44c.73.76.1,2.13-.88,2.5a4.8,4.8,0,0,1-3.07-.25l0,16.55c0,.83-.08,1.81-.79,2.24a2.12,2.12,0,0,1-2.07-.19,1,1,0,0,1-.46-.4A.74.74,0,0,1,1070.46,219.34Z" transform="translate(0.48 0.29)" style="fill: #fff"/>
        <path d="M1089.44,219.89a6.6,6.6,0,0,1-1.5-1.53,12.61,12.61,0,0,1-1.8-4.19,50.17,50.17,0,0,1-1.41-12.1c-.06-3.56,0-7.12.29-10.68.22-3.08.43-6.47,2-9.21a3.07,3.07,0,0,1,.92-1.07,3,3,0,0,1,1.64-.41,9,9,0,0,1,6.93,3.53,15.46,15.46,0,0,1,3,7.39,58.14,58.14,0,0,1,.39,8c0,4.65.29,9.36-.75,13.88a12,12,0,0,1-2.38,5.2,5.83,5.83,0,0,1-5.11,2.11A5.19,5.19,0,0,1,1089.44,219.89Zm4.45-2.3a3.55,3.55,0,0,0,.35-.44,10.8,10.8,0,0,0,1.59-3.72c1.79-6.9.62-14.17.39-21.29a14,14,0,0,0-.89-5.62c-.83-1.73-2.76-3.1-4.61-2.6-2.33.62-2.36,3.26-2.46,5.21-.15,2.88-.28,5.77-.32,8.65a73.45,73.45,0,0,0,1.47,17.13,6.37,6.37,0,0,0,.94,2.44,2.37,2.37,0,0,0,2.27,1A2.43,2.43,0,0,0,1093.89,217.59Z" transform="translate(0.48 0.29)" style="fill: #fff"/>
      </g>
      <g>
        <path d="M848.77,218.83a1.86,1.86,0,0,1-.56-1,4.7,4.7,0,0,1,.15-1.74,20.94,20.94,0,0,0,.17-4.48l-.37-10.67-.49-14.13-.24-7.06c0-1.46-1-5.44,1.36-5.49a1.63,1.63,0,0,1,1.48.93,3,3,0,0,1,.21,1.23c.5,13,1,26.06.9,39.09a8.56,8.56,0,0,0,2.37,0,4.19,4.19,0,0,1,2.33.3,1.74,1.74,0,0,1,1,2,2.2,2.2,0,0,1-2.36,1.12,7.5,7.5,0,0,0-2.79-.05c-.45.14-.84.42-1.29.54A2,2,0,0,1,848.77,218.83Z" transform="translate(0.48 0.29)" style="fill: #fff"/>
        <path d="M859.85,217a.94.94,0,0,1,0-.29c.15-.88,1.29-1.18,2.18-1.09.56,0,1.25.12,1.53-.36a1.26,1.26,0,0,0,.12-.64c0-1.34-.11-2.68-.22-4q-1-13.33-.78-26.73a3.59,3.59,0,0,1-2,0c-2.71-1,.8-3,1.94-3.2a27.35,27.35,0,0,1,3.14-.49,2.93,2.93,0,0,1,2.59.63,1.6,1.6,0,0,1-.91,2.48c-.56.09-1.18-.13-1.69.13-.69.34-.74,1.29-.7,2.06l1.67,29.75a5,5,0,0,1,2.32.13,1.73,1.73,0,0,1,1.18,1.81c-.2,1-1.42,1.33-2.42,1.43a26.14,26.14,0,0,1-5.73-.09,3.81,3.81,0,0,1-1.56-.45A1.52,1.52,0,0,1,859.85,217Z" transform="translate(0.48 0.29)" style="fill: #fff"/>
        <path d="M890.09,218.38a3,3,0,0,1-.26-.34,6.14,6.14,0,0,1-.71-2c-2.5-10.17-6.4-19.94-10.28-29.67l-.05,24.35a24.77,24.77,0,0,0,.32,4.87,3.45,3.45,0,0,1,0,2.35,1.54,1.54,0,0,1-1.71.71c-1.21-.35-1.48-1.91-1.52-3.16q-.27-9.33-.14-18.64.06-4.72.21-9.44a21.6,21.6,0,0,1,.23-4.34c.13-.57,1.15-2.9,1.94-2.81,1.42.16,2.31,1.58,2.94,2.87,4.64,9.52,6.5,20.12,9.9,30.15a293.5,293.5,0,0,0,1.1-29.95,4.45,4.45,0,0,1,.17-1.63,1.53,1.53,0,0,1,1.15-1.06,1.55,1.55,0,0,1,1.5,1,4.57,4.57,0,0,1,.26,1.88c-.06,10.74-.37,21.5-1.43,32.19a5.9,5.9,0,0,1-.48,2.12,2.09,2.09,0,0,1-1.68,1.22A2,2,0,0,1,890.09,218.38Z" transform="translate(0.48 0.29)" style="fill: #fff"/>
        <path d="M913.74,216.85a27.33,27.33,0,0,1-1.63-3.91,123.27,123.27,0,0,1-3.9-15.41,23.74,23.74,0,0,0-2.09,10.25c-.07,3.52.2,7-.06,10.55a2.07,2.07,0,0,1-.19.85c-.44.76-1.69.6-2.24-.09a4.06,4.06,0,0,1-.61-2.51q-.21-9.62.19-19.23.19-4.82.55-9.61c.12-1.69-.44-7.32,2-7.47a1.74,1.74,0,0,1,1.63.95,3.68,3.68,0,0,1,.08,2.16,66.25,66.25,0,0,0-.53,11.53l5.93-11.57a5.11,5.11,0,0,1,1.9-2.36c.91-.47,2.3-.14,2.51.86a2.57,2.57,0,0,1-.6,1.84c-1.62,2.47-3.16,5-4.65,7.52a8,8,0,0,0-.72,1.47,6.54,6.54,0,0,0-.26,1.92c-.07,3.75,1,7.42,2,11s2.06,7,4.05,10.06a6.42,6.42,0,0,1,1,1.89,1.8,1.8,0,0,1-.57,1.94,1.7,1.7,0,0,1-1.79,0,4.07,4.07,0,0,1-1.29-1.38Q914.07,217.48,913.74,216.85Z" transform="translate(0.48 0.29)" style="fill: #fff"/>
        <path d="M922.44,218.85l-.08-.07a1.76,1.76,0,0,1-.1-2.5,4.92,4.92,0,0,0,3.53.16,4.48,4.48,0,0,0,1.93-2.82,15.93,15.93,0,0,0,.83-6.23c-.34-3.85-2.53-7.24-4.34-10.66a18.33,18.33,0,0,1-2.57-8.4c0-2.49.63-5.79,2.56-7.54,1.34-1.21,3.61-1.53,4.91-.27.66.65.85,2,0,2.37s-1.7-.31-2.5,0a1.81,1.81,0,0,0-.89.82c-1.92,2.91-1.34,6.84.06,10s3.52,6.06,4.68,9.35a17.22,17.22,0,0,1,.57,9.3,11.06,11.06,0,0,1-1.95,4.5,6.58,6.58,0,0,1-4.09,2.55A3.19,3.19,0,0,1,922.44,218.85Z" transform="translate(0.48 0.29)" style="fill: #fff"/>
      </g>
      <g>
        <path d="M644.39,218.94a3.76,3.76,0,0,1-.38-1.84c0-7.62.33-15.23.25-22.84,0-3.83-.18-7.66-.56-11.48-.19-1.9-.46-3.79-.75-5.69-.25-1.6.93-2.18,2.49-2.24a5.32,5.32,0,0,1,1.32.12,8.71,8.71,0,0,1,5.21,3.68,13,13,0,0,1,2,6.14c.5,5.62-2.2,11.65-7.21,14.26l.49,17.15a4.71,4.71,0,0,1-.33,2.36,1.64,1.64,0,0,1-2,.9A1.4,1.4,0,0,1,644.39,218.94ZM650,191.73a13.38,13.38,0,0,0,1-7.41,7.76,7.76,0,0,0-.76-2.52,9.11,9.11,0,0,0-4.2-3.73,18.42,18.42,0,0,0,.1,4.32l.19,4.71.18,4.7c0,.63.58,4.11.18,4.46A13.25,13.25,0,0,0,650,191.73Z" transform="translate(0.48 0.29)" style="fill: #fff"/>
        <path d="M668,217.42c-2.23-5.61-2.55-11.84-4.36-17.62l-.64,0c-.16,5.5-.31,11.05.65,16.47.2,1.18.43,2.51-.3,3.46a1.72,1.72,0,0,1-1.58-.14,2.43,2.43,0,0,1-.64-1.92l-.63-19.52-.31-9.65c0-1.65-.11-3.29-.15-4.94,0-1.12-.07-2.32,1.18-2.84a3.44,3.44,0,0,1,1.69-.14c2.27.23,4.63,1.32,5.62,3.38a9.76,9.76,0,0,1,.63,4.06,18.74,18.74,0,0,1-.4,4.91,16.88,16.88,0,0,1-2,4.2,3.16,3.16,0,0,0-.48,1.1,3.06,3.06,0,0,0,0,1c1,6.17,2.1,12.42,4.74,18.09.39.84.77,2,.08,2.58a1.44,1.44,0,0,1-1.78,0,3.86,3.86,0,0,1-1.07-1.58C668.22,218,668.1,217.7,668,217.42Zm-2.63-24a17.8,17.8,0,0,0,.9-5.31,12.61,12.61,0,0,0-.47-3.48,2.55,2.55,0,0,0-2.61-1.91l-.11.29-.12.52.12,6.84c.07,2,.11,4.2.11,6.56C664,196.52,664.76,195.35,665.36,193.44Z" transform="translate(0.48 0.29)" style="fill: #fff"/>
        <path d="M681.27,219.37a8.81,8.81,0,0,1-2.43-3.38,28.89,28.89,0,0,1-2-9.34,95.22,95.22,0,0,1-.12-13.72c.14-2.32.36-4.65.7-7,.22-1.53.78-4,2-5.07a3.91,3.91,0,0,1,2.87-.73c3.7.32,6.67,3.44,8,6.91s1.34,7.28,1.42,11c.12,5,.39,10.15-.81,15a11.47,11.47,0,0,1-2.61,5.33,5.58,5.58,0,0,1-5.43,1.74A4.79,4.79,0,0,1,681.27,219.37Zm4.49-2.31a5.71,5.71,0,0,0,1.1-1.88,29.79,29.79,0,0,0,1.81-11.59c0-3.94-.49-7.87-.6-11.8a17.42,17.42,0,0,0-.58-5,5,5,0,0,0-3.46-3.42c-5.17-1-4.08,8.32-4.17,11.14a92.44,92.44,0,0,0,.76,16.79,18.89,18.89,0,0,0,1.19,4.69,3.08,3.08,0,0,0,1.67,1.87,2.28,2.28,0,0,0,2.16-.63Z" transform="translate(0.48 0.29)" style="fill: #fff"/>
        <path d="M694.43,224s0-.09,0-.14a1.31,1.31,0,0,1,.79-1.35,8.82,8.82,0,0,1,1.61-.49,5.8,5.8,0,0,0,3.55-4,17,17,0,0,0,.46-5.51l-.71-28.4-2.8-.44c-2.65-.41-1.16-2.39.79-2.39a49.56,49.56,0,0,1,9.18.87.81.81,0,0,1,.63.35.6.6,0,0,1,0,.52,2.19,2.19,0,0,1-2.1,1,10.5,10.5,0,0,0-2.44-.06c.36,9.94.71,19.87.63,29.81a21.76,21.76,0,0,1-.4,4.77,7.73,7.73,0,0,1-2.27,4.12,9.8,9.8,0,0,1-4.59,2C695.85,224.78,694.72,224.74,694.43,224Z" transform="translate(0.48 0.29)" style="fill: #fff"/>
        <path d="M714.2,219.44l-.12-.13a3,3,0,0,1-.56-1.76c-.23-2.58-.22-5.18-.21-7.77l.08-15.27,0-7.75c0-1.78-.65-4.93,1.56-5.67a5.28,5.28,0,0,1,2.56,0,27.73,27.73,0,0,1,3.11.78c.88.28,1.9.81,2,1.73a1.66,1.66,0,0,1-1.46,1.55,4.61,4.61,0,0,1-2.27-.41,5.42,5.42,0,0,0-2.26-.5L716.44,196c1,.13,2-.2,3-.11s2.11.87,1.94,1.87-1.22,1.31-2.12,1.29a13,13,0,0,0-2.7-.14L716.41,217a33.07,33.07,0,0,1,4.67-.06c.7,0,1.51.17,1.83.79a1.43,1.43,0,0,1-.66,1.75,4,4,0,0,1-2,.43c-1.27.05-2.54.07-3.81.07A3.36,3.36,0,0,1,714.2,219.44Z" transform="translate(0.48 0.29)" style="fill: #fff"/>
        <path d="M734.43,219.68A6.65,6.65,0,0,1,731.3,218a8.26,8.26,0,0,1-1.84-3.53,36.6,36.6,0,0,1-1.16-9.79q-.06-4.18.16-8.35a38.55,38.55,0,0,1,.8-8c1-3.93,3.67-7.38,8-7.79a3.35,3.35,0,0,1,2,.3,1.54,1.54,0,0,1,.77,1.75,1.88,1.88,0,0,1-1.81,1,12.33,12.33,0,0,0-2.19,0,3.41,3.41,0,0,0-2.21,1.72A8.65,8.65,0,0,0,733,188a83,83,0,0,0-1.1,13.28,60.51,60.51,0,0,0,.23,9.52,9.12,9.12,0,0,0,1.5,4.41,3.91,3.91,0,0,0,4.11,1.59,4,4,0,0,1,1.33-.37,1.46,1.46,0,0,1,1.24,1.69,2.26,2.26,0,0,1-1.52,1.66,5.27,5.27,0,0,1-2.34.19A12.27,12.27,0,0,1,734.43,219.68Z" transform="translate(0.48 0.29)" style="fill: #fff"/>
        <path d="M749,218.23l0-.1a2.6,2.6,0,0,1-.05-.39l-1.88-34-2.78-.35a3.55,3.55,0,0,1-1.41-.37c-2.17-1.26.78-2.33,1.92-2.27l8,.49a2.37,2.37,0,0,1,1.2.29,1.45,1.45,0,0,1,.18,2,2.36,2.36,0,0,1-2,.76,7,7,0,0,1-2.17-.69c0,4.94.33,9.87.7,14.79l1.26,17a6,6,0,0,1-.08,2,2.11,2.11,0,0,1-1.25,1.51A1.32,1.32,0,0,1,749,218.23Z" transform="translate(0.48 0.29)" style="fill: #fff"/>
        <path d="M759.64,219.3a1.81,1.81,0,0,1-.2-2.58,4.82,4.82,0,0,0,3.49.2,4.14,4.14,0,0,0,1.81-2.35,14.61,14.61,0,0,0,.75-8.19c-.75-3.64-2.9-6.81-4.56-10.14a16.49,16.49,0,0,1-2.09-8.1c.14-2.39.82-5.55,2.8-7.11a3.65,3.65,0,0,1,4.68,0c.65.64.83,1.92,0,2.33s-1.52-.19-2.27,0a2.19,2.19,0,0,0-1.25,1c-1.76,2.74-1.28,6.4,0,9.4s3.25,5.68,4.45,8.71a19,19,0,0,1,1.22,9,12.23,12.23,0,0,1-1.65,5.17,7.15,7.15,0,0,1-4.26,3.23,3.36,3.36,0,0,1-2.87-.45Z" transform="translate(0.48 0.29)" style="fill: #fff"/>
      </g>
      <path d="M813,200.87c.79,4-2.75,6.59-8,7.11-5.25.72-8.79-1.64-8-6.85s4.34-8,8-7.38A9.09,9.09,0,0,1,813,200.87Z" transform="translate(0.48 0.29)" style="fill: #fff"/>
      <path d="M983,201.13c.78-5.2,4.34-8,8-7.38a9.09,9.09,0,0,1,8,7.12c.79,4-2.75,6.59-8,7.11C985.75,208.7,982.21,206.34,983,201.13Z" transform="translate(0.48 0.29)" style="fill: #fff"/>
    </g>
  </g>
  <g id="name">
    <g>
      <path d="M144.85,48.64a2.27,2.27,0,0,1,0,.58c-.36,1.81-2.53,2.48-4.3,3a66.64,66.64,0,0,0-10.82,4.39L95.46,72.9a7.5,7.5,0,0,0-3,2.09,7.13,7.13,0,0,0-1,2.59,59.13,59.13,0,0,0-1.4,15.18l37.4-14.31a8.32,8.32,0,0,1,4.62-.8c1.56.34,2.92,2,2.31,3.49a4.17,4.17,0,0,1-2.57,1.92l-35.65,14c-2.81,1.1-5.86,2.42-7.18,5.14a12.2,12.2,0,0,0-.9,4.5c-.5,7-1,14.17,1.27,20.8.66,2,1.69,4,3.56,4.87,3.15,1.5,6.69-.94,9.33-3.22L125.2,109.3c2.59-2.23,5.74-4.62,9.06-3.85a7.41,7.41,0,0,1,1.68,4.21,224.14,224.14,0,0,0-27.79,21.52,36.07,36.07,0,0,1-7.8,5.81c-2.92,1.43-6.44,2-9.42.69-3.56-1.54-5.61-5.32-6.73-9-2.48-8.3-1.55-17.18-.6-25.79A3.34,3.34,0,0,1,81,96.76c.86-.51,2-.64,2.63-1.37a4,4,0,0,0,.76-2.51q.47-6.78.54-13.59a10,10,0,0,1-4.57,1.28c-1.59-.08-3.26-1.2-3.38-2.79s1.18-2.8,2.52-3.54,2.87-1.2,4-2.28c1.64-1.61,1.87-4.17,1.7-6.47-.15-2.14-1.37-6.56,1.07-7.7a6.33,6.33,0,0,1,6.87,1.08,3.57,3.57,0,0,1,1,1.69c.42,1.81-1.13,4,.16,5.39a10.85,10.85,0,0,0,3.92-1.22l38.7-17.68a9.26,9.26,0,0,1,4.87-1.22A3.43,3.43,0,0,1,144.85,48.64Z" transform="translate(0.48 0.29)" style="fill: #59c6ce"/>
      <path d="M229.81,89.24a1.07,1.07,0,0,1,0,.91,2.07,2.07,0,0,1-1.42.82l-17.59,4.5c-7.56,1.92-15.13,3.84-22.77,5.42a47.74,47.74,0,0,1-13,1.34c-2.59-.2-5.5-1.06-6.57-3.42s.11-4.87,1.57-6.84c2.79-3.76,6.8-6.37,10.51-9.22s7.33-6.23,8.76-10.68c-4.39-1.35-9.12-.61-13.6.37A139.31,139.31,0,0,0,159.51,77a4.08,4.08,0,0,0-1.8,1,3.93,3.93,0,0,0-.7,2.33,57.11,57.11,0,0,0,.6,13.57c.56,3.43,1.56,7,4.16,9.33.82.74,1.86,1.43,2,2.52.2,1.35-1.07,2.59-.93,4-3.91.13-7.55-2.47-9.57-5.83s-2.66-7.36-2.88-11.27-.06-7.86-.63-11.73a14.71,14.71,0,0,0-4.31,1.69,6.22,6.22,0,0,1-4.47.73,2.87,2.87,0,0,1-2-3.11c.27-1.47,2.19-2.32,3.38-3a52.47,52.47,0,0,1,10.34-4.5,176,176,0,0,1,28-7,42.48,42.48,0,0,1,9.93-.75,7.65,7.65,0,0,1,4.68,1.62c2.28,2.11,1.76,5.9.33,8.67-4.29,8.35-14.3,12.4-19.14,20.45,5.39,1.69,11.19.26,16.68-1.07a295.56,295.56,0,0,1,33.63-6.34,4.08,4.08,0,0,1,2.17.13A1.64,1.64,0,0,1,229.81,89.24Z" transform="translate(0.48 0.29)" style="fill: #59c6ce"/>
      <path d="M225.58,91.72a1.06,1.06,0,0,1-.49.87,6.82,6.82,0,0,1-5.59,1.12,7.91,7.91,0,0,1-4.7-3.3c-1.56-2.32-1.89-5.26-1.83-8.07a67.35,67.35,0,0,0,.17-8.4c-.26-2.47-2.18-9.35,2.47-9a4.15,4.15,0,0,1,3,2,8.51,8.51,0,0,1,1.14,3.49c.74,5.27-.75,10.78.79,15.87.23.76.65,1.61,1.44,1.73.27,0,.55,0,.82,0A2.16,2.16,0,0,1,224,89.14C224.5,89.83,225.59,90.83,225.58,91.72Z" transform="translate(0.48 0.29)" style="fill: #59c6ce"/>
      <path d="M286.21,89.1c-.07.81-1,1.55-2.57,2.05-5.53,1.76-11.28,3.33-17.06,2.8-8.37-.76-16-5.85-24.42-5.94a12.9,12.9,0,0,0,.84,2c.58,1.12.9,1.35,1,2a3.63,3.63,0,0,1-.83,2.52,5.76,5.76,0,0,1-2.95,2.24,5.17,5.17,0,0,1-3,.12c-1.68-.62-2.75-2.8-3.2-7a108.36,108.36,0,0,1-.4-16.51c.13-2.72.33-5.44.58-8.14.19-2,.89-4.24,3.16-4.65a3.62,3.62,0,0,1,3.77,1.84,8.12,8.12,0,0,1,.45,4.05,28.69,28.69,0,0,0,.7,7.39c6.88-4.12,14-8.5,18.22-15.34a5,5,0,0,1,2.15-2.44c1.76-.84,4.39-.27,4.88,1a1.9,1.9,0,0,1-.18,1.45C265,63.28,261,67,256.88,70.22s-8.65,6-12.61,9.49c2.95,2.38,6.83,3.2,10.48,4.23,6.68,1.89,13.31,4.75,20.23,4.37a55.56,55.56,0,0,0,7.24-1.12,3.87,3.87,0,0,1,2.44-.08A2.33,2.33,0,0,1,286.21,89.1Z" transform="translate(0.48 0.29)" style="fill: #59c6ce"/>
    </g>
    <g>
      <path d="M237.2,188.76a1.47,1.47,0,0,1-.12.65c-.39,1-1.52,1.3-2.52,1.51-13.43,2.86-27.44.43-40.59-3.49s-25.86-9.33-39.18-12.63A12.34,12.34,0,0,0,161.22,188a3.9,3.9,0,0,1,1.42.93c1.11,1.4-.61,3.4-2.34,3.86-3.86,1-8-1.33-10.21-4.68s-2.81-7.46-3.13-11.45c-.06-.78-.21-1.7-.91-2a2.12,2.12,0,0,0-1.32,0c-1.92.43-3.78,1.26-5.75,1.32s-4.2-1-4.58-2.93,1.15-3.64,2.84-4.55c1.91-1,2.83-.86,5.23-2.37A15.06,15.06,0,0,0,145,164c1.9-2,2-4.78,1.85-11.51q-.14-6.81-.26-13.62c-.1-5.12-1.18-7,3.75-9A17.77,17.77,0,0,1,154,138a27.31,27.31,0,0,1,0,6,55,55,0,0,0,.69,11.15c10.62-7.46,21.35-15,29.95-24.73,2.23-2.52,4.91-5.44,8.25-5a4.17,4.17,0,0,1,.88,4.81,12.19,12.19,0,0,1-3.32,4q-15.8,14.18-32.85,26.87c-1.67,1.24-3.47,2.66-3.91,4.7,13.06,4,25.52,9.71,38.42,14.18s26.53,7.73,40.13,6.51a7.09,7.09,0,0,1,3.4.22A2.51,2.51,0,0,1,237.2,188.76Z" transform="translate(0.48 0.29)" style="fill: #59c6ce"/>
      <path d="M233.52,145a8.23,8.23,0,0,1,.16,1.4,38.72,38.72,0,0,1-.39,6.18c-.38,3.38-.79,6.84-2.26,9.92-1.83,3.86-5.19,6.8-8.76,9.16a44,44,0,0,1-15,6.38,18.23,18.23,0,0,1-9.22,0c-4.71-1.47-8.26-6.32-7.83-11.23.57-6.6,6.69-12.21,11.18-16.5,4.84-4.64,10.32-8.84,16.79-10.85a13.79,13.79,0,0,1,8.25-.41,15.63,15.63,0,0,1,4.82,2.89,6.44,6.44,0,0,1,1.94,2.12A4.5,4.5,0,0,1,233.52,145Zm-6.12,3.59a2.54,2.54,0,0,0-.16-.28c-1.19-2-3.87-2.36-6.18-2.52a5.1,5.1,0,0,0-1.46,0,4.34,4.34,0,0,0-.93.35,46.42,46.42,0,0,0-10.75,7,39.29,39.29,0,0,0-7.8,9.83c-1.16,1.92-1.92,4.35-1,6.38a5.49,5.49,0,0,0,3.69,2.79,11.3,11.3,0,0,0,4.74,0,26.53,26.53,0,0,0,9.16-3.35,20.87,20.87,0,0,0,7.33-7,34.29,34.29,0,0,0,3-7.6C227.69,152.33,228.23,150.23,227.4,148.54Z" transform="translate(0.48 0.29)" style="fill: #59c6ce"/>
      <path d="M284,143.68a9.94,9.94,0,0,1-.12,3.48c-1.21,6.2-6.1,10.92-10.78,15.16-4.18,3.78-8.47,7.58-13.6,9.9a8.94,8.94,0,0,1-4,1,8.71,8.71,0,0,1-3.18-.9,20.4,20.4,0,0,1-5.13-3.39,8.88,8.88,0,0,1-2.29-2.41c-.33-.82-.08-2.13-.3-3.1-1.43-6.43.65-13.56-2.18-19.51l-5,1.74c-1.11.38-2.37.75-3.4.21a3.2,3.2,0,0,1-1-4.1c.94-1.49,4.3-2.35,5.87-3,2-.83,4-1.65,6-2.32a68,68,0,0,1,7.31-1.85c5.07-1.07,10.25-2,15.42-1.54s10.38,2.3,13.94,6.07a9.39,9.39,0,0,1,2.3,3.67A6.74,6.74,0,0,1,284,143.68Zm-6.15,1.59a4.49,4.49,0,0,0-.31-1.3c-.85-2.14-3.17-3.29-5.36-4a30.07,30.07,0,0,0-18.08,0c-1.08.34-2.95.82-3.52,1.88-.71,1.3.06,3.62.24,5,.64,4.76-.72,9.62,0,14.37.25,1.68.88,3.48,2.36,4.31.93.53,2.3.82,2.42,1.89,7.83-2.48,13.93-8.62,19.14-15a17,17,0,0,0,2.58-3.87A6.76,6.76,0,0,0,277.89,145.27Z" transform="translate(0.48 0.29)" style="fill: #59c6ce"/>
      <path d="M330.74,129.18a.86.86,0,0,1,.17.46c0,.57-.48,1-.87,1.42-1.68,1.82-1.19,4.68-.6,7.09l2.78,11.34a32.73,32.73,0,0,1,1.37,9.5c-.17,3.2-1.42,6.51-4,8.42-4.08,3-9.9,1.68-14.46-.56a46.43,46.43,0,0,1-17-14.3,30,30,0,0,0-2.65,13.37c.06,2,.46,4.18,2.09,5.3.71.5,1.66.79,2,1.58.63,1.37-1,2.65-2.39,3.22-1.92.79-4.15,1.44-6,.53-2.77-1.33-3.1-5.08-3-8.15a229.77,229.77,0,0,1,2.09-23.28c.44-3.09.85-17.14,7.32-11.67,1.7,1.45,2.35,3.75,3.08,5.86a41.09,41.09,0,0,0,20.26,23,4.82,4.82,0,0,0,3.17.69c1.85-.45,2.56-2.69,2.72-4.59.86-10-4.24-19.48-6.15-29.35a1.71,1.71,0,0,1,.13-1.39,1.63,1.63,0,0,1,1.11-.46,14,14,0,0,1,7.94,1.29A2.2,2.2,0,0,1,330.74,129.18Z" transform="translate(0.48 0.29)" style="fill: #59c6ce"/>
      <path d="M391.47,154c.12,1.11-1.14,1.81-2.19,2.19-4.46,1.61-10,2.94-13.5-.26-1.51-1.37-2.54-3.53-4.54-4a6.22,6.22,0,0,0-2.67.21L351.68,156a12.77,12.77,0,0,0-5.42,2.16,13.38,13.38,0,0,0-2.9,4,11.45,11.45,0,0,1-3,3.9,4.08,4.08,0,0,1-4.64.3c-4-3,7.31-15.31,9.08-18.08,4.55-7.13,8.55-14.7,10.82-22.88.85-3.05,2.16-6.83,5.31-7.14,2.95-.3,5,2.77,6.3,5.44,2.55,5.31,4.86,10.75,6.9,16.28a16.41,16.41,0,0,0,2.31,4.69,5.24,5.24,0,0,0,4.55,2.14c1.2-.17,2.61-.84,3.5,0a1.87,1.87,0,0,1-.39,2.67,5.35,5.35,0,0,1-2.9.84c.47,1.51,2.29,2.15,3.87,2.16s3.19-.39,4.72,0C390.56,152.69,391.38,153.21,391.47,154Zm-22-6.23a1.73,1.73,0,0,0-.16-.61q-3.18-7.59-6.65-15.07c-.5-1.07-1.16-2.26-2.31-2.49a8.35,8.35,0,0,1-1.25,4c-2.4,4.68-6.43,10.08-7.18,15.36a1.41,1.41,0,0,0,.08.91c.29.52,1,.54,1.63.48q7.33-.69,14.65-1.71c.47-.07,1-.22,1.17-.68A1,1,0,0,0,369.48,147.77Z" transform="translate(0.48 0.29)" style="fill: #59c6ce"/>
      <path d="M475.56,138.53c0,.94-1.13,1.48-2.07,1.74-15.76,4.31-31.57,8.63-47.72,11.11a18.18,18.18,0,0,1-6.93.14,6.6,6.6,0,0,1-5-4.33c-.76-2.84,1.14-5.7,3.22-7.77,6.19-6.18,15.3-10.24,18-18.55a70.49,70.49,0,0,0-29.82,5.6,4.32,4.32,0,0,0-1.89,1.26,4.38,4.38,0,0,0-.61,2.43c-.43,7.69-.58,16.24,4.49,22,.91,1.05,2,2.11,2.13,3.5.12,1.83-1.81,3.32-3.65,3.25a6.76,6.76,0,0,1-4.65-2.65c-2.54-3-3.65-6.91-4.37-10.75a70.64,70.64,0,0,1-1.17-15.5c-2.22.51-4.08,2.1-6.31,2.55-2,.4-5.14-1-4.53-3.49s5.67-4.06,7.65-4.84a146.84,146.84,0,0,1,41-10.07c3.19-.27,7.05-.08,8.66,2.67,1.21,2,.58,4.69-.45,6.83-3.66,7.67-11.46,12.3-17.63,18.15a3.53,3.53,0,0,0-1,1.38,2.48,2.48,0,0,0,1.83,2.85,7.3,7.3,0,0,0,3.73-.19q21.93-5,44.15-8.59c1.17-.19,2.82,0,2.92,1.15C475.55,138.47,475.56,138.5,475.56,138.53Z" transform="translate(0.48 0.29)" style="fill: #59c6ce"/>
    </g>
    <g>
      <path d="M69,243.22a1.09,1.09,0,0,1,.06.44,1.86,1.86,0,0,1-.7,1.28A6.08,6.08,0,0,1,66,246a119.62,119.62,0,0,0-19.64,7.74,1.21,1.21,0,0,0-.59.5,1.16,1.16,0,0,0,0,.69,81.18,81.18,0,0,0,2.48,8.78c.41,1.17.82,2.52.2,3.59a1.35,1.35,0,0,1-.75.64c-.83.23-1.52-.66-1.89-1.45a28.75,28.75,0,0,1-2.64-9.63c-.06-.58-.17-1.28-.72-1.49s-1,.09-1.47.11a1.46,1.46,0,0,1-1.28-2c.41-.77,1.42-1,2-1.63a3.48,3.48,0,0,0,.7-2,22.68,22.68,0,0,0-.34-7.35,6,6,0,0,1-.22-2.29c.11-.56.4-1.08.5-1.65s0-1.25.07-1.87.54-1.28,1.16-1.27.9.45,1.38.64a3,3,0,0,0,2.14-.27l8.06-3.18c2.46-1,5.27-2.48,8-2a3,3,0,0,1,2.52,2.23c.19,1.18-1,2.48-2.14,2.1-.46-.16-.82-.55-1.27-.75a3.5,3.5,0,0,0-2.1,0,37.31,37.31,0,0,0-13.22,5.64,2.8,2.8,0,0,0-1.57,3l.07,6.32a1.21,1.21,0,0,0,.3,1c.33.26.82.1,1.2-.07a178,178,0,0,1,20.51-7.42,1.66,1.66,0,0,1,.82-.1A1,1,0,0,1,69,243.22Z" transform="translate(0.48 0.29)" style="fill: #59c6ce"/>
      <path d="M82.75,253.65a1.19,1.19,0,0,1,0,.46,2.15,2.15,0,0,1-.9,1.14,3.17,3.17,0,0,1-2.37.69,3.33,3.33,0,0,1-2.22-2.12c-.43-1-.62-2-1.08-3a33.86,33.86,0,0,1-4.32,5.78c-1,1.1-2.36,2.21-3.85,2s-2.35-1.59-2.8-2.94c-1.13-3.43-.14-7.16.86-10.64.21-.72.52-2,1.42-2.09,1.14-.14,1.25,1.12,1.1,1.91-.59,2.94-1.72,6-.81,8.84a1.83,1.83,0,0,0,.75,1.11c.7.38,1.54-.12,2.13-.66a13.19,13.19,0,0,0,4.2-7.93,7.53,7.53,0,0,1,.64-2.76,1.87,1.87,0,0,1,2.39-.92,2.69,2.69,0,0,1,1,1.95l1.26,7c.11.65.36,1.43,1,1.54.33.06.67-.09,1,0A.87.87,0,0,1,82.75,253.65Z" transform="translate(0.48 0.29)" style="fill: #59c6ce"/>
      <path d="M98.71,249c.29.4-1.15,2.16-2.16,2.9a25.9,25.9,0,0,1-5.79,3.48,5.39,5.39,0,0,1-3.92.24c-1.63-.68-2.46-2.54-2.68-4.3-.34-2.8.46-5.74-.41-8.43a7.67,7.67,0,0,1-.64-2.36c0-1.49,2.3-2.74,3.45-1.63a3.33,3.33,0,0,1,.81,1.93c.47,3-.23,6.08,0,9.12a3.48,3.48,0,0,0,.83,2.31c.67.64,1.84.35,3.38-.17A28.87,28.87,0,0,0,98,249C98.28,248.92,98.6,248.87,98.71,249Z" transform="translate(0.48 0.29)" style="fill: #59c6ce"/>
      <path d="M113.71,247.22c.39.67-1.81,2.69-2.11,2.88l-4,2.54c-1.39.89-2.94,1.81-4.57,1.58a4.72,4.72,0,0,1-3.51-3.29,13.75,13.75,0,0,1-.43-5,14.27,14.27,0,0,0-.39-5,7.18,7.18,0,0,1-.6-2.23c0-1.43,2.28-2.65,3.4-1.63a3.28,3.28,0,0,1,.85,1.95c.49,3-.2,6.07,0,9.11a3.53,3.53,0,0,0,.83,2.34c.63.61,1.74.39,3.3-.12A23.73,23.73,0,0,0,113,247C113.27,247,113.59,247,113.71,247.22Z" transform="translate(0.48 0.29)" style="fill: #59c6ce"/>
      <path d="M148.51,249.3a4.49,4.49,0,0,1-.71,1.91,11.46,11.46,0,0,1-5.6,4.52,23.12,23.12,0,0,1-7.14,1.42,2.57,2.57,0,0,1-1.14-.11,2.06,2.06,0,0,1-.88-.85,3.18,3.18,0,0,1-.56-1.9,1.81,1.81,0,0,1,1.1-1.56,1.26,1.26,0,0,1,1.6.79c.08.31,0,.68.26.89a.89.89,0,0,0,.82.1,22,22,0,0,0,8-3.36,1.92,1.92,0,0,0,1-1.16c.13-.78-.64-1.39-1.34-1.75-3.63-1.88-7.79-2.38-11.7-3.57l-.35.06-5.28-2a12.11,12.11,0,0,1-1.88-1.38c-2.1-1.9-3.5-4.9-2.64-7.6.15-.48.43-1.44,2.34-3.5S130.13,224,136,223a16.44,16.44,0,0,1,5,0c2.49.25,2.88.68,3,1a1.85,1.85,0,0,1-1,2c-.44.22-.72.07-2,0h-5a7,7,0,0,0-2.33.63c-.33.16-.78.42-1.06.59-1.38.79-1.65.91-5.07,3.84a8.63,8.63,0,0,0-2.32,2.69,3.92,3.92,0,0,0-.25,3.43,4.94,4.94,0,0,0,1,1.27,12.88,12.88,0,0,0,2.53,2c2.91,1.75,6.37,2.28,9.68,3.06a57,57,0,0,1,7,2.13c1.44.54,3.05,1.36,3.37,2.87A3,3,0,0,1,148.51,249.3Z" transform="translate(0.48 0.29)" style="fill: #59c6ce"/>
      <path d="M172,230c.19.95-.85,1.82-.94,1.9a4.4,4.4,0,0,1-3,.71A30.63,30.63,0,0,0,160,234c-1.68.53-2.53.82-3,1.51-1.65,2.43,1.69,7.06,2,7.49a3,3,0,0,1,1.48.44,1.62,1.62,0,0,1,.85.92,2.71,2.71,0,0,1-.57,2.21,7.73,7.73,0,0,1-1.76,1.56,1.58,1.58,0,0,1-.67.34,1.51,1.51,0,0,1-1.22-.52,9,9,0,0,1-2.31-5.25,31.34,31.34,0,0,0-1.05-5.72.75.75,0,0,0-1.12-.6l-2.67.83c-.92.29-2.05.53-2.73-.14-2.65-2.63,7.22-4.18,8.37-4.4a78.5,78.5,0,0,0,8.24-2c1.38-.42,2.74-.88,4.08-1.4.81-.31,1.79-1.13,2.64-.85a1.78,1.78,0,0,1,.55.37A2.42,2.42,0,0,1,172,230Z" transform="translate(0.48 0.29)" style="fill: #59c6ce"/>
      <path d="M190,243.35c.06.47-.55.89-.91,1.13a5.08,5.08,0,0,1-3.16.77,3.44,3.44,0,0,1-2.82-1.43c-.26-.4-.4-.85-.68-1.23a1.18,1.18,0,0,0-1.2-.54c-.15,0-.28.13-.42.17a2.42,2.42,0,0,1-.66.06,9.9,9.9,0,0,0-3.09.78,18.73,18.73,0,0,1-4,.89,2.85,2.85,0,0,0-1.08.26,2.76,2.76,0,0,0-1,1.28,22,22,0,0,1-1.7,2.84c-.39.55-.91,1.15-1.59,1.14a1.43,1.43,0,0,1-1.14-1.85c.11-.35.32-.66.4-1,0-.17.06-.34.11-.51a2.4,2.4,0,0,1,.41-.73c3.83-5.25,5.87-11.57,7.53-17.85.16-.63.27-2.08.73-2.55s1.75-.14,2.36.07a1.25,1.25,0,0,1,.52.28,1.56,1.56,0,0,1,.34.6l4.45,12c.26.7.64,1.5,1.37,1.63a4.91,4.91,0,0,0,1.45-.22,1,1,0,0,1,1,.75c0,.37-.47.7-1,1.07a5.17,5.17,0,0,1-.67.38,2.12,2.12,0,0,0,1.5,1c.6.09,1.21-.09,1.81,0C188.91,242.5,189.88,242.78,190,243.35Zm-9.22-3.43a1.22,1.22,0,0,0-.09-.42l-3-8c-.43-1.16-.79-.68-1.11.2s-.69,1.87-1,2.81l-2.07,5.64a.84.84,0,0,0-.06.56c.13.32.57.34.92.29l6-.71a.65.65,0,0,0,.24-.06A.37.37,0,0,0,180.73,239.92Z" transform="translate(0.48 0.29)" style="fill: #59c6ce"/>
      <path d="M210,238c.21.28-.35,1.07-.77,1.51a4.68,4.68,0,0,1-1.78,1.11,18.15,18.15,0,0,1-4,1.12,30,30,0,0,1-6.52.8,9.7,9.7,0,0,1-6.1-2.12,7.28,7.28,0,0,1-2.44-5.85c.27-4.34,4.72-7.09,8.39-8.51a11.21,11.21,0,0,1,5.94-.69,3.27,3.27,0,0,1,2.09,1.09,2.2,2.2,0,0,1-.64,3A2,2,0,0,1,202,229a2.68,2.68,0,0,0-1.42-.94,2.44,2.44,0,0,0-1.41.12,16.73,16.73,0,0,0-5.91,3.17,5.34,5.34,0,0,0-1.78,3.42,4.81,4.81,0,0,0,2,4,8.55,8.55,0,0,0,4.36,1.53,21.83,21.83,0,0,0,5.81-.36,10.16,10.16,0,0,0,2.87-.82c.4-.2.6-.35,1.17-.6S209.73,237.64,210,238Z" transform="translate(0.48 0.29)" style="fill: #59c6ce"/>
      <path d="M231.93,239.76a4.68,4.68,0,0,1-2,.73,15.18,15.18,0,0,1-4.16.71c-4-.06-7.39-3.13-11.36-3.53A4,4,0,0,1,215,240c-.06.91-.5,2.32-1.4,2.53a1.59,1.59,0,0,1-.94-.08A1.85,1.85,0,0,1,212,242a3.38,3.38,0,0,1-.83-1.33,93.23,93.23,0,0,1-.28-15.49c.06-.69.07-1.36.8-1.53a1.91,1.91,0,0,1,1.84.76c.61.86.42,2,.38,3.07a9.19,9.19,0,0,0,.41,3.09,32.79,32.79,0,0,0,5.42-4.77,7.73,7.73,0,0,0,2.06-3.38,1.34,1.34,0,0,1,.19-.55,1.17,1.17,0,0,1,.95-.27c.65,0,1.48.16,1.62.8a1.43,1.43,0,0,1-.14.78c-1.27,3.11-3.86,5.45-6.37,7.67l-2.65,2.35c-.12.11-.26.24-.25.41s.21.33.4.42c1.78.88,3.62,1.66,5.46,2.43A27.63,27.63,0,0,0,225.4,238a9.27,9.27,0,0,0,4.62,0,5.11,5.11,0,0,1,1.58-.32,1.25,1.25,0,0,1,1.11,1C232.75,239.17,232.24,239.54,231.93,239.76Z" transform="translate(0.48 0.29)" style="fill: #59c6ce"/>
      <path d="M269,211.3l.53,9.71a52.63,52.63,0,0,1-.1,10.12,17.58,17.58,0,0,1-3.87,9.21,5.6,5.6,0,0,1-1.82,1.47c-2,.92-4.45-.22-5.78-2s-1.87-4-2.52-6.07a7.64,7.64,0,0,0-1.18,2.2,27.89,27.89,0,0,1-5.24,7.84,9.4,9.4,0,0,1-2.36,2,3.71,3.71,0,0,1-3,.36,4.23,4.23,0,0,1-2.19-2.23,12.82,12.82,0,0,1-1.05-5.69c0-6.69,2.14-13.32,1.52-20-.1-1-.34-5.65,1.89-3.63a3.15,3.15,0,0,1,.82,1.51,13.84,13.84,0,0,1,.41,4.35c-.12,3.81-.91,7.57-1.35,11.35a25.72,25.72,0,0,0,.7,11.32c1.74-.15,3.13-1.46,4.22-2.81a23.26,23.26,0,0,0,5.09-13.81,5.3,5.3,0,0,1,.58-2.88c.57-.82,2-1.09,2.5-.24a2.29,2.29,0,0,1,.25.83l.77,5c.45,2.95,1,6,2.82,8.38a2.47,2.47,0,0,0,1.09.86c.91.28,1.8-.44,2.39-1.18,2.21-2.78,2.79-6.51,3-10.06a62.55,62.55,0,0,0-.34-10.86,55.07,55.07,0,0,1-.57-5.86c0-.74.13-1.64.81-1.92a1.36,1.36,0,0,1,1.58.68,4.12,4.12,0,0,1,.39,1.81Z" transform="translate(0.48 0.29)" style="fill: #59c6ce"/>
      <path d="M289.26,215.55c0,.32-.43.62-.5.66a2.71,2.71,0,0,1-1.12.27A30.91,30.91,0,0,0,276.21,220a1.91,1.91,0,0,0-.76.65c-.61.94-.29,2.55.42,2.82a.78.78,0,0,0,.45,0q3.54-.63,7-1.58a3.13,3.13,0,0,1,1.57-.16,1.07,1.07,0,0,1,.86,1.15c-.1.41-.51.66-.88.86A31,31,0,0,1,277,226.7a2.64,2.64,0,0,0-1.51.87c-1.09,1.23-.58,3.2-.52,3.43a5.48,5.48,0,0,0,1.38,2.27c.63.72,1,1.17,1.62,1.29a3.58,3.58,0,0,0,2.66-.95,7,7,0,0,0,2.51-2.88,9.8,9.8,0,0,1,.69-1.88,1.33,1.33,0,0,1,1.71-.6c.55.35.54,1.16.41,1.8a10.61,10.61,0,0,1-4.42,6.54,5.16,5.16,0,0,1-8.57-3.24,39.81,39.81,0,0,1-.62-5.47,7.54,7.54,0,0,1-.07-2.32c.1-.48.3-.94.38-1.43.2-1.38-1-3.21-.35-4.5.3-.57,1.24-1.09,1.76-1.48a13.52,13.52,0,0,1,2.38-1.52,18,18,0,0,1,5.57-1.42c2.86-.38,4-1,5.68-.58C288,214.72,289.23,215,289.26,215.55Z" transform="translate(0.48 0.29)" style="fill: #59c6ce"/>
      <path d="M308.6,211.29a4,4,0,0,1-.28,1.72,9,9,0,0,1-1.69,2.55c-.33.39-.67.77-1,1.13-1.78,1.74-4.2,2.91-5.4,5.09a15.79,15.79,0,0,1,6.16,1c.82.3,1.75.88,1.69,1.75a1.87,1.87,0,0,1-.38.92,9.78,9.78,0,0,1-2.08,2.32,18.12,18.12,0,0,1-1.61,1.15L302.31,230a4.43,4.43,0,0,1-2.53,1,1.18,1.18,0,0,1-1-.54c-.32-.65.35-1.33.95-1.74q2.07-1.32,4.08-2.7c.23-.16.48-.4.39-.66a.61.61,0,0,0-.37-.29,6.77,6.77,0,0,0-3-.26,44.86,44.86,0,0,0-6.1.9.72.72,0,0,0-.38.16.73.73,0,0,0-.14.38,3.25,3.25,0,0,0,.59,2.28c.36.49.85.88,1.24,1.34a2.08,2.08,0,0,1,.61,1.66c-.71-.32-1.49.28-2.27.3-1,0-1.77-1-2.19-1.88a11,11,0,0,1-.85-2.74c-.12-.73-.17-1.47-.22-2.21l-.62-9.5a15.81,15.81,0,0,0-5.58,2.74,1.23,1.23,0,0,1-.78.36c-.64,0-.86-1-1.49-1.12-.22-1.65,1.49-2.16,2.72-2.66q7-2.82,14.19-5.05l1.51-.47.71-.21a10.5,10.5,0,0,1,3.48-.65,3.57,3.57,0,0,1,3,1.6A2.87,2.87,0,0,1,308.6,211.29Zm-3,.67a.74.74,0,0,0-.11-.24,1.12,1.12,0,0,0-.81-.3,15.79,15.79,0,0,0-5.46,1q-1.61.53-3.18,1.11c-.72.27-2.17.51-2.48,1.28s.06,2.6.11,3.53c.08,1.23.18,2.46.31,3.68a.53.53,0,0,0,.14.35.43.43,0,0,0,.35,0,5.18,5.18,0,0,0,2.07-1c1.29-.91,2.49-1.93,3.68-3a40.49,40.49,0,0,0,4-3.67,5.26,5.26,0,0,0,1.4-2.29A1.24,1.24,0,0,0,305.62,212Z" transform="translate(0.48 0.29)" style="fill: #59c6ce"/>
      <path d="M340.06,213.55a7.15,7.15,0,0,1-.3,3.21,18.81,18.81,0,0,1-4.61,7,18.28,18.28,0,0,1-5.61,4.41,1.9,1.9,0,0,1-1.16.21,2.15,2.15,0,0,1-.62-.32l-1.27-.87a5.26,5.26,0,0,1-2.15-2.16,5.38,5.38,0,0,1-.3-1.26c-.1-.69-.2-1.37-.27-2.06-.25-2.74.08-5.57-.75-8.2a.46.46,0,0,0-.15-.25.45.45,0,0,0-.28,0,9.1,9.1,0,0,0-1.74.74,1.63,1.63,0,0,1-1.77-.12c-.86-.83,0-2.13.75-2.63s2-.66,2.83-1.4a2.85,2.85,0,0,1,.49-.43,1.93,1.93,0,0,1,.67-.2c2.92-.52,5.78-1.69,8.73-1.44a9.37,9.37,0,0,1,6,2.86,6.31,6.31,0,0,1,1.23,1.81A5.18,5.18,0,0,1,340.06,213.55Zm-2.55.74a3.23,3.23,0,0,0-.53-1.46,4.57,4.57,0,0,0-1.9-1.42,9.33,9.33,0,0,0-4.43-.74,9.89,9.89,0,0,0-2.23.43c-.54.18-1.82.52-2.15,1s.08,1.52.13,2.13a26.54,26.54,0,0,1,.05,2.82,27.22,27.22,0,0,0,.17,5.49,3.78,3.78,0,0,0,1.89,2.79c2.87-.82,4.82-3.41,6.67-5.76a12.66,12.66,0,0,0,2-3.15A4.65,4.65,0,0,0,337.51,214.29Z" transform="translate(0.48 0.29)" style="fill: #59c6ce"/>
      <path d="M358.61,207.26a1,1,0,0,1-.36.58,2.69,2.69,0,0,1-1.4.4,29.9,29.9,0,0,0-11.35,3.57,1.52,1.52,0,0,0-.67.58,1.39,1.39,0,0,0-.07.7,12.86,12.86,0,0,0,.18,1.52.8.8,0,0,0,.35.61.77.77,0,0,0,.45,0,64.2,64.2,0,0,0,6.83-1.55,3.34,3.34,0,0,1,1.73-.18,1.08,1.08,0,0,1,.81,1.33,1.52,1.52,0,0,1-.77.66,35,35,0,0,1-8.3,3,1.69,1.69,0,0,0-1,.44c-.36.38-.44,1-.08,3,.31,1.79.48,2.7.88,3.15.85.95,2.3,1.33,2.88,1,.23-.14.42-.34.64-.49a6.65,6.65,0,0,1,.58-.33,5.69,5.69,0,0,0,2.55-2.94c.32-.85.49-1.87,1.26-2.36a1.07,1.07,0,0,1,1.39.17,1.91,1.91,0,0,1,.19,1.67,10.86,10.86,0,0,1-4.1,6.25,7.54,7.54,0,0,1-3,1.39A4.72,4.72,0,0,1,345,229c-1.65-1-2.37-3-2.79-4.82a11.36,11.36,0,0,1-.33-3.38,5.55,5.55,0,0,0,0-1.35c-.06-.33-.2-.64-.26-1a5.71,5.71,0,0,1,.24-2.16,7.35,7.35,0,0,0-.05-3c-.13-.56-.51-1.44-.27-2s.79-.55,1.25-.79a3.1,3.1,0,0,0,.64-.56c1.87-1.92,4.68-2.56,7.34-3a66.05,66.05,0,0,1,6.73-.65,1.24,1.24,0,0,1,.91.19A.69.69,0,0,1,358.61,207.26Z" transform="translate(0.48 0.29)" style="fill: #59c6ce"/>
      <path d="M372,203c-.53,1.7-.73,3.5-1.23,5.21-.3,1-.31.58-.87,4.63a36.78,36.78,0,0,1-2.62,9.48,6.3,6.3,0,0,1-1.7,2.55,1.88,1.88,0,0,1-2,.35,2.4,2.4,0,0,1-1-1.54c-1.43-4.61-2.3-9.42-4.35-13.79a10.18,10.18,0,0,1-1.09-2.9c-.18-1.34.78-1,1.35-.16,2.81,4.24,3.45,9.55,5.68,14.13a.71.71,0,0,0,.21.28c.34.23.72-.23.86-.61,2.22-5.78,2.9-12,4.07-18.1a3.83,3.83,0,0,1,.36-1,1.56,1.56,0,0,1,1.73-.72,1.35,1.35,0,0,1,.59.92A2.29,2.29,0,0,1,372,203Z" transform="translate(0.48 0.29)" style="fill: #59c6ce"/>
      <path d="M390.2,203.48a1,1,0,0,1-.28.53,2.52,2.52,0,0,1-1.5.47A30,30,0,0,0,377.25,208a1.79,1.79,0,0,0-.8.71,1.56,1.56,0,0,0-.07.83,13.87,13.87,0,0,0,.21,1.44.72.72,0,0,0,.29.51.7.7,0,0,0,.43,0q3.53-.61,7-1.57a3.18,3.18,0,0,1,1.61-.18,1.09,1.09,0,0,1,.88,1.19,1.59,1.59,0,0,1-.9.86,33.81,33.81,0,0,1-8,2.95,1.91,1.91,0,0,0-1.19.59c-.44.56-.17,1.21.26,3.65.29,1.69.3,1.94.62,2.44a2.35,2.35,0,0,0,2.13,1.16,3.57,3.57,0,0,0,1.58-.73,7.45,7.45,0,0,0,2.94-3.16,10.63,10.63,0,0,1,.67-1.84,1.34,1.34,0,0,1,1.66-.65c.59.32.63,1.15.51,1.81a10.12,10.12,0,0,1-2.19,4.42,9.36,9.36,0,0,1-3.86,3,5.17,5.17,0,0,1-4.73-.44,6.91,6.91,0,0,1-2.37-4.43,38.51,38.51,0,0,1-.51-4.92,13.07,13.07,0,0,1,0-1.77,20.18,20.18,0,0,0,.33-3.18c-.1-1.16-.94-2.46,0-3.35a16.64,16.64,0,0,1,3.54-2.6,16.87,16.87,0,0,1,5.42-1.54,54.55,54.55,0,0,1,6.75-.57,1.06,1.06,0,0,1,.5.06A.68.68,0,0,1,390.2,203.48Z" transform="translate(0.48 0.29)" style="fill: #59c6ce"/>
      <path d="M405.41,212.42c.31.42-.76,1.73-.84,1.82a9.9,9.9,0,0,1-1.77,1.38c-2.26,1.52-4.51,3.31-7.21,3.68a4.08,4.08,0,0,1-1.81-.11,3.67,3.67,0,0,1-1.65-1.26,7.74,7.74,0,0,1-1.37-4.27c-.08-1.51.08-3,.1-4.54a7.64,7.64,0,0,0-.71-3.76c-.37-.67-.65-1.16-.34-1.88a2.55,2.55,0,0,1,1.54-1.44,2.35,2.35,0,0,1,2.07.34,11.68,11.68,0,0,1,.81,5.44,49.07,49.07,0,0,0-.17,5.55,3.41,3.41,0,0,0,1.85,2.73A3.06,3.06,0,0,0,398,216c1.45-.45,1.79-1.23,3.19-2.19C402.87,212.66,405,211.94,405.41,212.42Z" transform="translate(0.48 0.29)" style="fill: #59c6ce"/>
      <path d="M421.76,201.38a6.06,6.06,0,0,1,.14,1.21,26.38,26.38,0,0,1-.35,4.43,9.28,9.28,0,0,1-4.9,8.38,17,17,0,0,1-3.34,2,13.84,13.84,0,0,1-2.08.63,7.55,7.55,0,0,1-2.4.28,5.54,5.54,0,0,1-4.24-3.51,6.06,6.06,0,0,1-.53-3.16,8.91,8.91,0,0,1,1-2.92,20.85,20.85,0,0,1,1.76-3.05c.56-.68,1.14-1.36,1.74-2a27.77,27.77,0,0,1,2.34-2.39c.67-.59,1.38-1.13,2.08-1.67a9.23,9.23,0,0,1,1.95-1.22,6.08,6.08,0,0,1,3.14-.25,3.76,3.76,0,0,1,1.2.34,4.78,4.78,0,0,1,1.23,1,5.23,5.23,0,0,1,1,1.19A3,3,0,0,1,421.76,201.38Zm-2.6,1.77a.4.4,0,0,0-.37-.4,2.75,2.75,0,0,0-1.07-.06,3.3,3.3,0,0,1-1.67-1.17c-.3-.39-4.6,3.53-5,3.93a15.33,15.33,0,0,0-3.23,5.51c-.41,1.28-.28,2.91.83,3.66a3.4,3.4,0,0,0,2.2.4,9.07,9.07,0,0,0,6.58-4.15A11.89,11.89,0,0,0,419.16,203.15Z" transform="translate(0.48 0.29)" style="fill: #59c6ce"/>
      <path d="M445.71,199.15a2.4,2.4,0,0,1,.12.38,6,6,0,0,1-.71,2.32,8.52,8.52,0,0,1-1.09,1.67c-.11.12-.2.21-.27.3a15.05,15.05,0,0,1-2,2,29.42,29.42,0,0,1-3.14,2.14l-5.17,3.21c-.68.42-1.61.83-2.22.31a2,2,0,0,1-.47-1.42.52.52,0,0,1,.06-.33.49.49,0,0,1,.3-.16,7.94,7.94,0,0,0,1.89-.94c2.27-1.38,4.49-2.85,6.65-4.39a6.55,6.55,0,0,0,2.61-2.84,1.2,1.2,0,0,0-.09-1.19,1.29,1.29,0,0,0-.71-.35,9.59,9.59,0,0,0-1.3-.24c-3.24-.36-6.43.9-9.45,2.13a3.33,3.33,0,0,0-1.59,1,2.9,2.9,0,0,0-.42,1.38,19.8,19.8,0,0,0,.1,3.69l.21,2.26c0,.56.1,1.11.18,1.66a11.12,11.12,0,0,0,1.12,3.8,4.14,4.14,0,0,1,1.63-.51c.57,0,1.2.42,1.18,1a1.48,1.48,0,0,1-.8,1.07,9.54,9.54,0,0,1-2.23,1.07,2.19,2.19,0,0,1-1.57.06,2.22,2.22,0,0,1-.81-.8,12.39,12.39,0,0,1-1.67-5.73,52.29,52.29,0,0,0-.58-6,1.21,1.21,0,0,1-1.63-.54c-.62-1.16.2-2.71,1.11-3.46a6.65,6.65,0,0,1,1.09-.69c.82-.45,1.64-.9,2.49-1.29s1.86-.79,2.81-1.15l1.93-.73,1-.38.8-.28a14.17,14.17,0,0,1,2.78-.64,11.79,11.79,0,0,1,5.67.72A3.75,3.75,0,0,1,445.71,199.15Z" transform="translate(0.48 0.29)" style="fill: #59c6ce"/>
      <path d="M464,194.91a1,1,0,0,1-.65.52,12.08,12.08,0,0,1-3.45.55,21.13,21.13,0,0,0-4.27,1.18,37.39,37.39,0,0,0-4.69,2,1.51,1.51,0,0,0-.76.69,1.56,1.56,0,0,0,0,.68l.12,1.2c0,.39.14.86.52,1a1,1,0,0,0,.51,0l7.44-1.71c.6-.13,1.4-.19,1.67.37a1.38,1.38,0,0,1-.26,1.26,1.15,1.15,0,0,1-.25.33,1.24,1.24,0,0,1-.44.23,50.67,50.67,0,0,0-5,2.08l-3,.67c-.68.15-.88.3-1.05.51s-.4.65-.09,2.85a10.11,10.11,0,0,0,.52,2.42,3.33,3.33,0,0,0,1.44,1.89c.66.33,1.4,0,2.23-.35a5.1,5.1,0,0,0,1.43-.83,6.33,6.33,0,0,0,.87-.94,15.07,15.07,0,0,0,1.3-2.25c.63-1.17.92-1.66,1.5-1.87a1.72,1.72,0,0,1,.53-.09,1.4,1.4,0,0,1,.71,1.28,4.11,4.11,0,0,1-.35,1.5,11.92,11.92,0,0,1-2.06,3.85,11.65,11.65,0,0,1-1.95,1.62A6,6,0,0,1,453,217a5.52,5.52,0,0,1-1.07-.15,5.62,5.62,0,0,1-2.43-1,6.13,6.13,0,0,1-1.64-3.23l-.06-.25a11.46,11.46,0,0,1-.6-4.59,5.71,5.71,0,0,0,.05-1,22,22,0,0,0-.11-2.46c-.22-3,.17-2.83-.08-4.07-.1-.5-.38-1.08-.14-1.56.11-.23.28-.32.57-.53.92-.64.62-.55,1.5-1.16a13.6,13.6,0,0,1,2.29-1.34,12.41,12.41,0,0,1,2.36-.72,45.59,45.59,0,0,1,10-1.13C463.68,193.9,464.14,194.44,464,194.91Z" transform="translate(0.48 0.29)" style="fill: #59c6ce"/>
      <path d="M499.83,203.57a.63.63,0,0,1,0,.58,1.15,1.15,0,0,1-.73.42l-13.1,3.6-2,.53c-.78.21-1.56.41-2.35.6a10.33,10.33,0,0,1-4.3.42,3.75,3.75,0,0,1-3.12-2.66c-.36-1.76,1-3.37,2.26-4.66l3.75-3.83a7.46,7.46,0,0,0,2.43-3.76.75.75,0,0,0-.09-.59.63.63,0,0,0-.37-.19,7.12,7.12,0,0,0-3,0,33.1,33.1,0,0,0-9.13,2.7,1.06,1.06,0,0,0-.45.32,1.08,1.08,0,0,0-.14.64c0,3.91-.07,8,1.59,11.5a2.69,2.69,0,0,0,.83,1.13,2.4,2.4,0,0,1,.56.38c.58.66-.38,1.69-.17,2.55a3.47,3.47,0,0,1-3-1.21,7.67,7.67,0,0,1-1.52-3,40.48,40.48,0,0,1-1.23-10.77c-1.19.07-2,1.58-3.21,1.44a1.77,1.77,0,0,1-1.33-1.27c-.17-.67.26-1.12.78-1.53,1-.79,2.39-1,3.3-2,.34-.37.62-.84,1.08-1a3.11,3.11,0,0,1,1.06-.11,10.6,10.6,0,0,0,3.54-1,35,35,0,0,1,9.68-2.2c1.3-.11,2.75-.08,3.68.82s1,2.8.45,4.2A17.19,17.19,0,0,1,482,201c-1.08,1.18-2.18,2.33-3.32,3.45a2,2,0,0,0-.68,1,1.33,1.33,0,0,0,1.08,1.34,3.84,3.84,0,0,0,1.87-.14c2.08-.52,4.15-1,6.23-1.51Q492.56,204,498,203a2.33,2.33,0,0,1,1.31,0A.92.92,0,0,1,499.83,203.57Z" transform="translate(0.48 0.29)" style="fill: #59c6ce"/>
    </g>
    <path d="M90.36,252.11" transform="translate(0.48 0.29)" style="fill: #59c6ce"/>
  </g>
</svg>
